<?xml version="1.0" encoding="UTF-8"?>
<svg id="Layer_1" xmlns="http://www.w3.org/2000/svg" version="1.1" viewBox="0 0 559.83 494.51">
  <!-- Generator: Adobe Illustrator 29.8.0, SVG Export Plug-In . SVG Version: 2.1.1 Build 160)  -->
  <defs>
    <style>
      .st0 {
        fill: #cd4a27;
      }
    </style>
  </defs>
  <path class="st0" d="M163.18,248.82L23.12,388.86C0,411.84-1.13,448.01,20.51,469.65c21.52,21.52,57.76,20.42,80.82-2.58l177.42-177.48h.01c23.18-23.06,24.31-59.27,2.73-80.85-.56-.62-1.25-.95-1.81-1.42-.71-.83-1.28-1.75-1.99-2.49L102.55,29.75C79.85,7.07,43.94,6.15,22.3,27.73.67,49.33,1.62,85.22,24.32,107.98l138.86,140.84Z"/>
  <path class="st0" d="M422.97,248.82l-140.06,140.04c-23.12,22.98-24.25,59.15-2.61,80.79,21.52,21.52,57.76,20.42,80.82-2.58l177.42-177.48h.01c23.18-23.06,24.31-59.27,2.73-80.85-.56-.62-1.25-.95-1.81-1.42-.71-.83-1.28-1.75-1.99-2.49L362.34,29.75c-22.7-22.68-58.61-23.6-80.25-2.02-21.63,21.6-20.68,57.49,2.02,80.25l138.86,140.84Z"/>
</svg>