<?xml version="1.0" encoding="UTF-8"?>
<svg id="Layer_1" xmlns="http://www.w3.org/2000/svg" version="1.1" viewBox="0 0 104.29 80.25">
  <!-- Generator: Adobe Illustrator 29.8.0, SVG Export Plug-In . SVG Version: 2.1.1 Build 160)  -->
  <defs>
    <style>
      .st0 {
        fill: #cc4927;
      }

      .st1 {
        fill: #fff;
      }

      .st2 {
        fill: #f58020;
      }
    </style>
  </defs>
  <path class="st2" d="M17.73,80.25c-6.09,0-10.56-1.43-13.43-4.3S0,68.64,0,62.62V17.72C0,11.58,1.43,7.08,4.3,4.23,7.17,1.38,11.64-.03,17.73,0h68.83c6.12,0,10.6,1.43,13.45,4.28,2.85,2.85,4.27,7.33,4.28,13.44v44.8c0,6.09-1.43,10.57-4.28,13.43s-7.34,4.29-13.45,4.3H17.73Z"/>
  <path class="st0" d="M17.73,80.25c-6.09,0-10.56-1.43-13.43-4.3S0,68.64,0,62.62V17.72C0,11.58,1.43,7.08,4.3,4.23,7.17,1.38,11.64-.03,17.73,0h68.83c6.12,0,10.6,1.43,13.45,4.28,2.85,2.85,4.27,7.33,4.28,13.44v44.8c0,6.09-1.43,10.57-4.28,13.43s-7.34,4.29-13.45,4.3H17.73Z"/>
  <path class="st1" d="M54.51,46.51v3.11c0,4.36.85,7.39,2.56,9.07s4.75,2.54,9.14,2.54h7.84c3.79,0,6.54-.45,8.26-1.34,1.75-.94,2.95-2.67,3.21-4.64.13-.79.48-1.54,1-2.15.59-.52,1.37-.77,2.15-.71.83-.06,1.65.23,2.27.79.55.63.75,1.5.54,2.31-.51,4-2.2,6.96-5.08,8.87-2.88,1.91-7.01,2.88-12.4,2.89h-7.79c-6.08,0-10.55-1.43-13.42-4.3s-4.3-7.31-4.3-13.33v-10.9c0-6.17,1.43-10.69,4.3-13.54s7.34-4.25,13.42-4.18h7.84c6.11,0,10.59,1.43,13.45,4.28,2.86,2.85,4.28,7.33,4.27,13.44v4.78c0,2-1,3-3,3h-34.26ZM66.21,27.02c-4.39-.06-7.44.75-9.14,2.44-1.71,1.7-2.56,4.77-2.56,9.26v1.77h31.24v-1.77c0-4.42-.84-7.48-2.53-9.17-1.69-1.69-4.74-2.53-9.17-2.53h-7.84Z"/>
</svg>