<?xml version="1.0" encoding="UTF-8"?>
<svg id="Layer_1" xmlns="http://www.w3.org/2000/svg" version="1.1" viewBox="0 0 104.29 80.25">
  <!-- Generator: Adobe Illustrator 29.8.0, SVG Export Plug-In . SVG Version: 2.1.1 Build 160)  -->
  <defs>
    <style>
      .st0 {
        fill: #cb4927;
      }
    </style>
  </defs>
  <path class="st0" d="M90.81,16.05c4.44,0,8.04-3.62,8.04-8.04S95.25,0,90.81,0H13.48C9.04,0,5.45,3.62,5.45,8.04s3.6,8.01,8.04,8.01h77.33Z"/>
  <path class="st0" d="M90.81,48.15c4.44,0,8.04-3.62,8.04-8.04s-3.6-8.01-8.04-8.01H13.48c-4.44,0-8.04,3.62-8.04,8.04s3.6,8.01,8.04,8.01h77.33Z"/>
  <path class="st0" d="M90.81,80.25c4.44,0,8.04-3.62,8.04-8.04s-3.6-8.01-8.04-8.01H13.48c-4.44,0-8.04,3.62-8.04,8.04s3.6,8.01,8.04,8.01h77.33Z"/>
</svg>