<?xml version="1.0" encoding="UTF-8"?>
<svg id="Capa_1" xmlns="http://www.w3.org/2000/svg" version="1.1" viewBox="0 0 800 800">
  <!-- Generator: Adobe Illustrator 29.8.0, SVG Export Plug-In . SVG Version: 2.1.1 Build 160)  -->
  <defs>
    <style>
      .st0 {
        fill: #cc4927;
      }
    </style>
  </defs>
  <path class="st0" d="M698.96,781.71H101.04c-55.8,0-101.04-45.24-101.04-101.04V119.29C0,63.49,45.24,18.25,101.04,18.25h597.92c55.8,0,101.04,45.24,101.04,101.04v561.38c0,55.8-45.24,101.04-101.04,101.04ZM661.14,440.97c23.18-23.06,24.31-59.27,2.73-80.85-.56-.62-1.25-.95-1.81-1.42-.71-.83-1.28-1.75-1.99-2.49l-175.14-175.08c-22.7-22.68-58.61-23.6-80.25-2.02-21.63,21.6-20.68,57.49,2.02,80.25l85.3,85.24H176.18c-30.63,0-55.41,24.99-55.41,55.41s24.81,55.26,55.41,55.26h314.17l-84.85,84.97c-23.12,22.98-24.25,59.15-2.61,80.79,21.52,21.52,57.76,20.42,80.82-2.58l177.42-177.48h.01Z"/>
</svg>